<svg width="140" height="28" viewBox="0 0 140 28" fill="none" xmlns="http://www.w3.org/2000/svg">
<path d="M2.50917 21.4929H0V1.01754H2.50917V9.91865H13.1731V1.01754H15.7108V21.4929H13.1731V12.1084H2.50917V21.4929Z" fill="white"/>
<path d="M20.5588 4.94199C20.5588 2.43945 22.4977 0.590973 25.235 0.590973C27.9722 0.590973 29.9397 2.49632 29.9397 4.94199C29.9397 6.84734 28.7421 8.52519 26.1189 10.1746C27.7726 12.1368 29.3979 14.099 31.0517 16.0328C31.7271 14.5078 32.0952 12.8651 32.1352 11.1984H34.5018C34.466 13.546 33.8068 15.8421 32.5914 17.8529L35.6708 21.4929H32.7625C32.2207 20.8957 31.7075 20.2417 31.1657 19.616C30.3804 20.374 29.4514 20.9682 28.433 21.3637C27.4147 21.7592 26.3274 21.9482 25.235 21.9195C21.015 21.9195 18.3633 19.5307 18.3633 15.9475C18.3633 13.6156 19.7319 11.6818 22.9254 9.8049C21.1291 7.7858 20.5588 6.33546 20.5588 4.94199ZM24.237 11.369C21.4712 13.1037 20.7869 14.2981 20.7869 15.9475C20.7869 18.3079 22.5262 19.7867 25.235 19.7867C26.0758 19.8126 26.9129 19.6643 27.6932 19.351C28.4736 19.0377 29.1803 18.5663 29.7686 17.9666L24.237 11.369ZM27.5731 4.94199C27.5731 3.57697 26.7462 2.72383 25.2635 2.72383C23.7808 2.72383 22.9254 3.60541 22.9254 4.94199C22.9254 5.93733 23.4101 6.93266 24.8073 8.6105C26.7462 7.35923 27.5731 6.44921 27.5731 4.94199Z" fill="white"/>
<path d="M48.8721 21.4929H46.477L40.4607 5.53919H40.4037V21.4929H38.0371V1.01754H41.1451L47.7316 18.5354C49.9556 12.7056 52.1512 6.84734 54.3467 1.01754H57.3406V21.4929H54.9455V5.53919H54.917C52.921 10.8571 50.9061 16.175 48.8721 21.4929Z" fill="white"/>
<path d="M80.9206 13.4165H74.8758V11.2552H83.5438V21.4929H81.7474L81.1772 18.8482C79.5519 21.0664 77.2709 21.9195 74.8758 21.9195C68.6314 21.9195 65.2383 17.4263 65.2383 11.2552C65.2383 5.36856 68.6028 0.590973 74.8758 0.590973C79.0387 0.590973 82.4318 2.83758 83.2016 6.93266H80.5784C79.9226 4.25948 77.6701 2.83758 74.8758 2.83758C69.9715 2.83758 67.833 6.9611 67.833 11.2552C67.833 15.9475 69.943 19.7013 74.8758 19.7013C77.7271 19.7013 80.6925 17.2841 80.9206 13.4165Z" fill="white"/>
<path d="M86.709 7.1886H89.0471V9.17926C89.7884 7.58673 91.2711 6.76203 93.324 6.76203C93.7627 6.75928 94.2011 6.78779 94.6357 6.84734V8.95176C94.2007 8.89594 93.7626 8.86745 93.324 8.86645C90.5012 8.86645 89.0471 10.3168 89.0471 13.1322V21.4929H86.709V7.1886Z" fill="white"/>
<path d="M109.064 14.355C109.064 19.1326 105.87 21.9195 101.964 21.9195C98.0576 21.9195 94.8926 19.1041 94.8926 14.355C94.8926 9.60583 98.029 6.76203 101.964 6.76203C105.842 6.76203 109.064 9.54896 109.064 14.355ZM106.64 14.355C106.64 10.7149 104.616 8.89488 101.964 8.89488C99.2551 8.89488 97.2877 10.7149 97.2877 14.355C97.2877 17.9951 99.2551 19.7867 101.964 19.7867C104.673 19.7867 106.64 17.9666 106.64 14.355Z" fill="white"/>
<path d="M120.867 21.4929V19.8151C119.812 21.2086 118.301 21.9195 116.276 21.9195C112.909 21.9195 111.227 19.9857 111.227 16.1466V7.1886H113.567V16.0328C113.567 18.6491 114.537 19.8435 116.761 19.8435C119.128 19.8435 120.867 18.3079 120.867 15.6916V7.1886H123.205V21.4929H120.867Z" fill="white"/>
<path d="M128.621 8.95176C129.708 7.50142 131.247 6.76203 133.329 6.76203C137.292 6.76203 140.001 9.83334 140.001 14.355C140.001 18.8766 137.349 21.9195 133.329 21.9195C131.247 21.9195 129.679 21.2086 128.621 19.7326V27.4109H126.283V7.1886H128.621V8.95176ZM133.158 19.8435C135.895 19.8435 137.577 17.8813 137.577 14.3265C137.577 10.7718 135.867 8.838 133.158 8.838C130.221 8.838 128.621 10.6296 128.621 14.355C128.621 17.9666 130.221 19.8435 133.158 19.8435Z" fill="white"/>
</svg>
